<svg xmlns="http://www.w3.org/2000/svg" xmlns:xlink="http://www.w3.org/1999/xlink" version="1.1" viewBox="196.08 294.7 973.85 178.61">
<g clip-path="url('#clip0_1151_3277')" fill="#050A0B">
	<g clip-path="url('#clip0_1151_3277')" fill="#050A0B">
		<path d="M467.38,432.09c-9.89,0-18.47-2.23-25.74-6.69c-7.27-4.46-12.87-10.61-16.81-18.46c-3.94-7.84-5.91-16.9-5.91-27.16    c0-10.32,2.02-19.4,6.05-27.25c4.03-7.84,9.68-13.95,16.95-18.32c7.26-4.37,15.75-6.55,25.46-6.55c9.89,0,18.47,2.23,25.74,6.69    c7.27,4.46,12.89,10.6,16.85,18.41c3.97,7.82,5.95,16.83,5.95,27.02c0,10.32-2,19.4-6,27.25c-4,7.85-9.63,13.99-16.9,18.41    C485.76,429.87,477.21,432.09,467.38,432.09z M467.38,414.04c9.46,0,16.53-3.19,21.2-9.57c4.67-6.38,7.01-14.61,7.01-24.68    c0-10.32-2.37-18.58-7.1-24.78c-4.74-6.2-11.77-9.3-21.11-9.3c-6.41,0-11.7,1.45-15.85,4.35c-4.15,2.9-7.24,6.9-9.25,12    c-2.02,5.1-3.02,11.01-3.02,17.72c0,10.38,2.38,18.68,7.14,24.91C451.17,410.93,458.16,414.04,467.38,414.04z"/>
		<path d="M535.98,473.31V330.41h17.04v71.17h2.2v71.72H535.98z M582.52,432.09c-9.46,0-17.4-2.31-23.81-6.92    c-6.41-4.61-11.27-10.85-14.57-18.73s-4.95-16.76-4.95-26.65c0-9.89,1.63-18.78,4.9-26.66c3.26-7.88,8.09-14.09,14.47-18.64    c6.38-4.55,14.24-6.83,23.58-6.83c9.28,0,17.3,2.28,24.04,6.83c6.75,4.55,11.96,10.75,15.62,18.59c3.66,7.85,5.5,16.75,5.5,26.7    c0,9.89-1.82,18.79-5.45,26.7c-3.63,7.91-8.79,14.15-15.48,18.73S591.74,432.09,582.52,432.09z M579.86,414.78    c6.11,0,11.16-1.56,15.16-4.67c4-3.11,6.99-7.31,8.98-12.59c1.98-5.28,2.97-11.19,2.97-17.72c0-6.47-0.99-12.34-2.97-17.59    c-1.99-5.25-5.02-9.43-9.11-12.55c-4.09-3.12-9.31-4.67-15.66-4.67c-5.98,0-10.92,1.46-14.79,4.4c-3.88,2.93-6.75,7.02-8.61,12.27    c-1.86,5.25-2.79,11.3-2.79,18.14c0,6.84,0.92,12.89,2.75,18.14c1.83,5.25,4.73,9.37,8.7,12.36    C568.44,413.28,573.57,414.78,579.86,414.78z"/>
		<path d="M691.33,432.09c-9.84,0-18.46-2.15-25.88-6.46c-7.42-4.3-13.19-10.32-17.31-18.04c-4.12-7.72-6.19-16.68-6.19-26.88    c0-10.81,2.03-20.18,6.09-28.12c4.06-7.94,9.72-14.08,16.99-18.41c7.27-4.34,15.73-6.51,25.37-6.51c10.08,0,18.65,2.34,25.74,7.01    c7.08,4.67,12.38,11.31,15.89,19.92c3.51,8.61,4.9,18.84,4.17,30.68h-19.14v-6.96c-0.13-11.48-2.31-19.97-6.55-25.46    c-4.24-5.49-10.7-8.24-19.37-8.24c-9.59,0-16.79,3.02-21.62,9.07c-4.83,6.04-7.24,14.78-7.24,26.2c0,10.87,2.41,19.28,7.24,25.23    c4.82,5.95,11.79,8.93,20.88,8.93c5.98,0,11.16-1.36,15.52-4.08c4.37-2.72,7.77-6.61,10.22-11.68l18.78,5.95    c-3.85,8.86-9.68,15.71-17.49,20.56C709.62,429.66,700.92,432.09,691.33,432.09z M656.07,385.28v-14.93h70.62v14.93H656.07z"/>
		<path d="M753.89,429.34v-98.93h17.13v28.58h2.29v70.35H753.89z M823.42,429.34V380.7c0-3.85-0.32-7.8-0.96-11.86    c-0.64-4.06-1.86-7.83-3.66-11.31c-1.8-3.48-4.34-6.29-7.6-8.43c-3.27-2.14-7.53-3.21-12.78-3.21c-3.42,0-6.66,0.57-9.71,1.7    c-3.05,1.13-5.72,2.95-8.01,5.45c-2.29,2.5-4.09,5.8-5.4,9.89c-1.31,4.09-1.97,9.07-1.97,14.93l-11.91-4.49    c0-8.98,1.68-16.9,5.04-23.77c3.36-6.87,8.18-12.23,14.47-16.07c6.29-3.85,13.89-5.77,22.81-5.77c6.84,0,12.58,1.1,17.22,3.3    c4.64,2.2,8.41,5.08,11.31,8.66c2.9,3.57,5.11,7.46,6.64,11.68c1.53,4.21,2.56,8.33,3.11,12.37c0.55,4.03,0.83,7.57,0.83,10.62    v54.96H823.42z"/>
		<path d="M859.32,345.8v-15.39h60.54v15.39H859.32z M875.71,429.34V326.94c0-2.5,0.09-5.18,0.28-8.01c0.18-2.84,0.72-5.65,1.6-8.43    c0.89-2.78,2.37-5.33,4.45-7.65c2.5-2.75,5.25-4.7,8.24-5.86c2.99-1.16,5.97-1.83,8.93-2.01c2.96-0.18,5.69-0.28,8.2-0.28h12.46    v15.75h-11.54c-4.52,0-7.89,1.11-10.12,3.34c-2.23,2.23-3.34,5.39-3.34,9.48v106.07H875.71z"/>
		<path d="M973.82,432.09c-9.89,0-18.47-2.23-25.74-6.69c-7.27-4.46-12.87-10.61-16.81-18.46c-3.94-7.84-5.91-16.9-5.91-27.16    c0-10.32,2.02-19.4,6.05-27.25c4.03-7.84,9.68-13.95,16.95-18.32c7.26-4.37,15.75-6.55,25.46-6.55c9.89,0,18.47,2.23,25.74,6.69    c7.27,4.46,12.89,10.6,16.85,18.41c3.97,7.82,5.95,16.83,5.95,27.02c0,10.32-2,19.4-6,27.25c-4,7.85-9.63,13.99-16.9,18.41    C992.2,429.87,983.65,432.09,973.82,432.09z M973.82,414.04c9.46,0,16.53-3.19,21.2-9.57c4.67-6.38,7.01-14.61,7.01-24.68    c0-10.32-2.37-18.58-7.1-24.78c-4.74-6.2-11.77-9.3-21.11-9.3c-6.41,0-11.7,1.45-15.85,4.35c-4.15,2.9-7.24,6.9-9.25,12    c-2.02,5.1-3.02,11.01-3.02,17.72c0,10.38,2.38,18.68,7.14,24.91C957.61,410.93,964.6,414.04,973.82,414.04z"/>
		<path d="M1042.52,429.34v-98.93h17.04v24l-2.38-3.12c1.22-3.17,2.81-6.09,4.76-8.75c1.95-2.65,4.21-4.84,6.78-6.55    c2.5-1.83,5.3-3.25,8.38-4.26c3.08-1.01,6.24-1.62,9.48-1.83c3.23-0.21,6.35-0.05,9.34,0.5v17.95c-3.24-0.85-6.83-1.1-10.77-0.73    c-3.94,0.37-7.55,1.62-10.85,3.75c-3.12,2.01-5.58,4.46-7.38,7.33c-1.8,2.87-3.1,6.06-3.9,9.57c-0.79,3.51-1.19,7.22-1.19,11.13    v49.92H1042.52z"/>
		<path d="M1102.33,345.8v-15.39h67.6v15.39H1102.33z M1169.92,429.34c-6.23,1.22-12.34,1.74-18.32,1.56s-11.33-1.34-16.03-3.48    c-4.7-2.14-8.24-5.5-10.63-10.08c-2.14-4.09-3.28-8.26-3.43-12.5c-0.15-4.24-0.23-9.05-0.23-14.43v-87.48h19.24v86.56    c0,3.97,0.04,7.42,0.14,10.35c0.09,2.93,0.72,5.41,1.88,7.42c2.2,3.79,5.69,5.94,10.49,6.46c4.79,0.52,10.43,0.32,16.9-0.59    V429.34z"/>
	</g>
	<g clip-path="url('#clip0_1151_3277')" fill="#050A0B">
		<rect x="272.66" y="400.64" width="18.2" height="32.4"/>
		<polygon points="367.45,327.74 367.45,327.74 367.45,327.72 209.55,327.72 209.55,327.74 196.08,327.74 196.08,433.02     214.28,433.02 214.28,345.92 349.25,345.92 349.25,433.02 367.45,433.02   "/>
		<polygon points="330.93,364.17 232.59,364.17 232.59,366.57 232.56,366.57 232.56,433.02 250.76,433.02 250.76,382.37     312.66,382.37 312.66,433.02 330.86,433.02 330.86,382.37 330.93,382.37   "/>
	</g>
</g>
</svg>